<svg xmlns="http://www.w3.org/2000/svg" viewBox="0 0 800 600" fill="none">
  <!-- Background shapes -->
  <rect x="80" y="60" width="640" height="480" fill="#F3EEE6" opacity="0.5"/>
  
  <!-- Main laptop/workspace illustration -->
  <rect x="200" y="160" width="400" height="260" fill="#243447" rx="0"/>
  <rect x="210" y="170" width="380" height="220" fill="#2e4a5f"/>
  
  <!-- Screen content - dashboard mockup -->
  <rect x="225" y="185" width="170" height="30" fill="#E1A337" opacity="0.3"/>
  <rect x="225" y="185" width="100" height="30" fill="#E1A337"/>
  <text x="240" y="205" font-family="sans-serif" font-size="12" font-weight="bold" fill="#243447">Dashboard</text>
  
  <!-- Chart bars on screen -->
  <rect x="225" y="230" width="30" height="80" fill="#E1A337" opacity="0.6"/>
  <rect x="265" y="250" width="30" height="60" fill="#E1A337" opacity="0.8"/>
  <rect x="305" y="225" width="30" height="85" fill="#E1A337"/>
  <rect x="345" y="260" width="30" height="50" fill="#E1A337" opacity="0.7"/>
  
  <!-- Profile card on screen -->
  <rect x="410" y="200" width="165" height="110" fill="#1a2633" opacity="0.5"/>
  <circle cx="445" cy="230" r="18" fill="#E1A337"/>
  <rect x="473" y="218" width="80" height="8" fill="#F3EEE6" opacity="0.6"/>
  <rect x="473" y="232" width="60" height="6" fill="#F3EEE6" opacity="0.3"/>
  <rect x="420" y="260" width="145" height="8" fill="#E1A337" opacity="0.3"/>
  <rect x="420" y="275" width="100" height="8" fill="#E1A337" opacity="0.2"/>
  <rect x="420" y="290" width="70" height="16" fill="#E1A337"/>
  <text x="430" y="302" font-family="sans-serif" font-size="8" font-weight="bold" fill="#243447">APPLY NOW</text>
  
  <!-- Stats row on screen -->
  <rect x="225" y="325" width="80" height="50" fill="#1a2633" opacity="0.4"/>
  <text x="240" y="348" font-family="sans-serif" font-size="16" font-weight="bold" fill="#E1A337">10K+</text>
  <text x="237" y="362" font-family="sans-serif" font-size="7" fill="#F3EEE6" opacity="0.6">Students</text>
  
  <rect x="315" y="325" width="80" height="50" fill="#1a2633" opacity="0.4"/>
  <text x="333" y="348" font-family="sans-serif" font-size="16" font-weight="bold" fill="#E1A337">500+</text>
  <text x="327" y="362" font-family="sans-serif" font-size="7" fill="#F3EEE6" opacity="0.6">Companies</text>
  
  <rect x="405" y="325" width="80" height="50" fill="#1a2633" opacity="0.4"/>
  <text x="427" y="348" font-family="sans-serif" font-size="16" font-weight="bold" fill="#E1A337">2K+</text>
  <text x="417" y="362" font-family="sans-serif" font-size="7" fill="#F3EEE6" opacity="0.6">Internships</text>
  
  <!-- Laptop base -->
  <rect x="160" y="420" width="480" height="15" fill="#243447"/>
  <rect x="300" y="420" width="200" height="8" fill="#2e4a5f"/>
  <rect x="130" y="435" width="540" height="8" fill="#1a2633"/>
  
  <!-- Floating elements -->
  <!-- Verified badge -->
  <rect x="580" y="120" width="140" height="50" fill="white" stroke="#E1A337" stroke-width="2"/>
  <circle cx="600" cy="145" r="12" fill="#059669"/>
  <path d="M594 145l4 4 8-8" stroke="white" stroke-width="2" stroke-linecap="round" stroke-linejoin="round"/>
  <text x="618" y="141" font-family="sans-serif" font-size="8" font-weight="bold" fill="#243447">VERIFIED</text>
  <text x="618" y="153" font-family="sans-serif" font-size="7" fill="#5a5a5a">KYC Approved</text>
  
  <!-- Money/Escrow badge -->
  <rect x="60" y="280" width="130" height="50" fill="white" stroke="#E1A337" stroke-width="2"/>
  <circle cx="82" cy="305" r="12" fill="#E1A337"/>
  <text x="78" y="310" font-family="sans-serif" font-size="12" font-weight="bold" fill="#243447">₹</text>
  <text x="100" y="301" font-family="sans-serif" font-size="8" font-weight="bold" fill="#243447">ESCROW</text>
  <text x="100" y="313" font-family="sans-serif" font-size="7" fill="#5a5a5a">Protected</text>
  
  <!-- Notification badge -->
  <rect x="620" y="320" width="120" height="50" fill="white" stroke="#243447" stroke-width="2"/>
  <text x="640" y="342" font-family="sans-serif" font-size="8" font-weight="bold" fill="#243447">New Match!</text>
  <text x="640" y="356" font-family="sans-serif" font-size="7" fill="#E1A337">95% compatible</text>
  
  <!-- Decorative dots pattern -->
  <g fill="#E1A337" opacity="0.2">
    <circle cx="100" cy="100" r="3"/>
    <circle cx="120" cy="100" r="3"/>
    <circle cx="140" cy="100" r="3"/>
    <circle cx="100" cy="120" r="3"/>
    <circle cx="120" cy="120" r="3"/>
    <circle cx="140" cy="120" r="3"/>
    <circle cx="100" cy="140" r="3"/>
    <circle cx="120" cy="140" r="3"/>
    <circle cx="140" cy="140" r="3"/>
  </g>
  
  <g fill="#243447" opacity="0.15">
    <circle cx="660" cy="460" r="3"/>
    <circle cx="680" cy="460" r="3"/>
    <circle cx="700" cy="460" r="3"/>
    <circle cx="660" cy="480" r="3"/>
    <circle cx="680" cy="480" r="3"/>
    <circle cx="700" cy="480" r="3"/>
    <circle cx="660" cy="500" r="3"/>
    <circle cx="680" cy="500" r="3"/>
    <circle cx="700" cy="500" r="3"/>
  </g>
  
  <!-- Connection lines -->
  <line x1="190" y1="305" x2="225" y2="305" stroke="#E1A337" stroke-width="1" stroke-dasharray="4 2" opacity="0.5"/>
  <line x1="575" y1="145" x2="580" y2="145" stroke="#E1A337" stroke-width="1" stroke-dasharray="4 2" opacity="0.5"/>
</svg>